<svg width="65" height="65" viewBox="0 0 65 65" fill="none" xmlns="http://www.w3.org/2000/svg">
<path fill-rule="evenodd" clip-rule="evenodd" d="M32.5 65C50.4493 65 65 50.4493 65 32.5C65 14.5507 50.4493 0 32.5 0C14.5507 0 0 14.5507 0 32.5C0 50.4493 14.5507 65 32.5 65ZM28.2519 43.1548C29.9158 44.1056 31.8042 44.581 33.9171 44.581C36.7695 44.581 39.1465 43.6962 41.0481 41.9266C41.4178 41.5569 41.5763 41.1475 41.5235 40.6985C41.4706 40.2231 41.2197 39.8006 40.7708 39.4308C40.4274 39.1403 40.0312 39.0214 39.5823 39.0742C39.1333 39.1007 38.6975 39.2855 38.2749 39.6289C37.6939 40.1043 37.0468 40.4608 36.3337 40.6985C35.647 40.9098 34.8415 41.0155 33.9171 41.0155C32.5173 41.0155 31.2892 40.6985 30.2328 40.0647C29.1763 39.4044 28.3444 38.5196 27.7369 37.4104C27.1559 36.3011 26.8653 35.0334 26.8653 33.6072C26.8653 32.1017 27.1559 30.7944 27.7369 29.6851C28.318 28.5759 29.1235 27.7175 30.1535 27.1101C31.1835 26.4762 32.372 26.1593 33.719 26.1593C35.647 26.1593 37.2581 26.8459 38.5522 28.2193C38.922 28.5891 39.3314 28.8268 39.7803 28.9324C40.2293 29.0116 40.6387 28.9192 41.0085 28.6551C41.4839 28.3118 41.7744 27.9156 41.88 27.4666C41.9857 27.0176 41.8536 26.5818 41.4839 26.1593C40.4538 24.9708 39.2917 24.086 37.9976 23.5049C36.7035 22.8975 35.2773 22.5938 33.719 22.5938C31.6325 22.5938 29.7838 23.0692 28.1727 24.02C26.5616 24.9443 25.2939 26.2385 24.3695 27.9024C23.4451 29.5663 22.9829 31.4679 22.9829 33.6072C22.9829 35.6936 23.4451 37.5688 24.3695 39.2327C25.3203 40.8702 26.6144 42.1775 28.2519 43.1548Z" fill="#ECAF43"/>
</svg>
