<svg width="67" height="67" viewBox="0 0 67 67" fill="none" xmlns="http://www.w3.org/2000/svg">
<mask id="path-1-outside-1_2_21" maskUnits="userSpaceOnUse" x="0" y="0" width="67" height="67" fill="black">
<rect fill="white" width="67" height="67"/>
<path fill-rule="evenodd" clip-rule="evenodd" d="M33.5 66C51.4493 66 66 51.4493 66 33.5C66 15.5507 51.4493 1 33.5 1C15.5507 1 1 15.5507 1 33.5C1 51.4493 15.5507 66 33.5 66ZM29.2519 44.1548C30.9158 45.1056 32.8042 45.581 34.9171 45.581C37.7695 45.581 40.1465 44.6962 42.0481 42.9266C42.4178 42.5569 42.5763 42.1475 42.5235 41.6985C42.4706 41.2231 42.2197 40.8006 41.7708 40.4308C41.4274 40.1403 41.0312 40.0214 40.5823 40.0742C40.1333 40.1007 39.6975 40.2855 39.2749 40.6289C38.6939 41.1043 38.0468 41.4608 37.3337 41.6985C36.647 41.9098 35.8415 42.0155 34.9171 42.0155C33.5173 42.0155 32.2892 41.6985 31.2328 41.0647C30.1763 40.4044 29.3444 39.5196 28.7369 38.4104C28.1559 37.3011 27.8653 36.0334 27.8653 34.6072C27.8653 33.1017 28.1559 31.7944 28.7369 30.6851C29.318 29.5759 30.1235 28.7175 31.1535 28.1101C32.1835 27.4762 33.372 27.1593 34.719 27.1593C36.647 27.1593 38.2581 27.8459 39.5522 29.2193C39.922 29.5891 40.3314 29.8268 40.7803 29.9324C41.2293 30.0116 41.6387 29.9192 42.0085 29.6551C42.4839 29.3118 42.7744 28.9156 42.88 28.4666C42.9857 28.0176 42.8536 27.5818 42.4839 27.1593C41.4538 25.9708 40.2917 25.086 38.9976 24.5049C37.7035 23.8975 36.2773 23.5938 34.719 23.5938C32.6325 23.5938 30.7838 24.0692 29.1727 25.02C27.5616 25.9443 26.2939 27.2385 25.3695 28.9024C24.4451 30.5663 23.9829 32.4679 23.9829 34.6072C23.9829 36.6936 24.4451 38.5688 25.3695 40.2327C26.3203 41.8702 27.6144 43.1775 29.2519 44.1548Z"/>
</mask>
<path fill-rule="evenodd" clip-rule="evenodd" d="M33.5 66C51.4493 66 66 51.4493 66 33.5C66 15.5507 51.4493 1 33.5 1C15.5507 1 1 15.5507 1 33.5C1 51.4493 15.5507 66 33.5 66ZM29.2519 44.1548C30.9158 45.1056 32.8042 45.581 34.9171 45.581C37.7695 45.581 40.1465 44.6962 42.0481 42.9266C42.4178 42.5569 42.5763 42.1475 42.5235 41.6985C42.4706 41.2231 42.2197 40.8006 41.7708 40.4308C41.4274 40.1403 41.0312 40.0214 40.5823 40.0742C40.1333 40.1007 39.6975 40.2855 39.2749 40.6289C38.6939 41.1043 38.0468 41.4608 37.3337 41.6985C36.647 41.9098 35.8415 42.0155 34.9171 42.0155C33.5173 42.0155 32.2892 41.6985 31.2328 41.0647C30.1763 40.4044 29.3444 39.5196 28.7369 38.4104C28.1559 37.3011 27.8653 36.0334 27.8653 34.6072C27.8653 33.1017 28.1559 31.7944 28.7369 30.6851C29.318 29.5759 30.1235 28.7175 31.1535 28.1101C32.1835 27.4762 33.372 27.1593 34.719 27.1593C36.647 27.1593 38.2581 27.8459 39.5522 29.2193C39.922 29.5891 40.3314 29.8268 40.7803 29.9324C41.2293 30.0116 41.6387 29.9192 42.0085 29.6551C42.4839 29.3118 42.7744 28.9156 42.88 28.4666C42.9857 28.0176 42.8536 27.5818 42.4839 27.1593C41.4538 25.9708 40.2917 25.086 38.9976 24.5049C37.7035 23.8975 36.2773 23.5938 34.719 23.5938C32.6325 23.5938 30.7838 24.0692 29.1727 25.02C27.5616 25.9443 26.2939 27.2385 25.3695 28.9024C24.4451 30.5663 23.9829 32.4679 23.9829 34.6072C23.9829 36.6936 24.4451 38.5688 25.3695 40.2327C26.3203 41.8702 27.6144 43.1775 29.2519 44.1548Z" fill="#E9EAE3"/>
<path d="M29.2519 44.1548L28.7395 45.0135L28.7476 45.0183L28.7558 45.023L29.2519 44.1548ZM42.0481 42.9266L42.7293 43.6587L42.7425 43.6465L42.7552 43.6338L42.0481 42.9266ZM42.5235 41.6985L41.5296 41.809L41.5303 41.8154L42.5235 41.6985ZM41.7708 40.4308L41.1248 41.1943L41.135 41.2027L41.7708 40.4308ZM40.5823 40.0742L40.641 41.0725L40.6701 41.0708L40.6991 41.0674L40.5823 40.0742ZM39.2749 40.6289L38.6443 39.8528L38.6417 39.8549L39.2749 40.6289ZM37.3337 41.6985L37.6278 42.6543L37.6389 42.6509L37.6499 42.6472L37.3337 41.6985ZM31.2328 41.0647L30.7028 41.9127L30.7105 41.9175L30.7183 41.9222L31.2328 41.0647ZM28.7369 38.4104L27.8511 38.8744L27.8554 38.8826L27.8598 38.8907L28.7369 38.4104ZM28.7369 30.6851L27.8511 30.2211L28.7369 30.6851ZM31.1535 28.1101L31.6615 28.9714L31.6696 28.9666L31.6776 28.9617L31.1535 28.1101ZM39.5522 29.2193L38.8244 29.9051L38.8346 29.9159L38.8451 29.9264L39.5522 29.2193ZM40.7803 29.9324L40.5513 30.9058L40.5788 30.9123L40.6066 30.9172L40.7803 29.9324ZM42.0085 29.6551L42.5897 30.4688L42.5939 30.4658L42.0085 29.6551ZM42.4839 27.1593L41.7282 27.8142L41.7313 27.8178L42.4839 27.1593ZM38.9976 24.5049L38.5727 25.4102L38.5803 25.4138L38.588 25.4172L38.9976 24.5049ZM29.1727 25.02L29.6704 25.8874L29.6809 25.8812L29.1727 25.02ZM25.3695 28.9024L26.2437 29.388L25.3695 28.9024ZM25.3695 40.2327L24.4953 40.7184L24.5 40.7267L24.5047 40.7349L25.3695 40.2327ZM65 33.5C65 50.897 50.897 65 33.5 65V67C52.0015 67 67 52.0015 67 33.5H65ZM33.5 2C50.897 2 65 16.103 65 33.5H67C67 14.9985 52.0015 0 33.5 0V2ZM2 33.5C2 16.103 16.103 2 33.5 2V0C14.9985 0 0 14.9985 0 33.5H2ZM33.5 65C16.103 65 2 50.897 2 33.5H0C0 52.0015 14.9985 67 33.5 67V65ZM34.9171 44.581C32.9599 44.581 31.2457 44.1423 29.7481 43.2865L28.7558 45.023C30.5859 46.0688 32.6485 46.581 34.9171 46.581V44.581ZM41.3668 42.1946C39.6691 43.7744 37.5437 44.581 34.9171 44.581V46.581C37.9953 46.581 40.6238 45.618 42.7293 43.6587L41.3668 42.1946ZM41.5303 41.8154C41.5415 41.9105 41.5325 42.028 41.341 42.2195L42.7552 43.6338C43.3031 43.0858 43.6111 42.3845 43.5166 41.5817L41.5303 41.8154ZM41.135 41.2027C41.4292 41.4449 41.5115 41.6461 41.5296 41.809L43.5174 41.5881C43.4298 40.8002 43.0103 40.1562 42.4065 39.6589L41.135 41.2027ZM40.6991 41.0674C40.8746 41.0468 40.9942 41.0836 41.1248 41.1942L42.4167 39.6674C41.8607 39.1969 41.1879 38.9961 40.4654 39.0811L40.6991 41.0674ZM39.9055 41.405C40.2004 41.1654 40.4421 41.0842 40.641 41.0725L40.5235 39.076C39.8245 39.1171 39.1946 39.4057 38.6443 39.8528L39.9055 41.405ZM37.6499 42.6472C38.4783 42.3711 39.2328 41.9554 39.9081 41.4028L38.6417 39.8549C38.1549 40.2532 37.6153 40.5506 37.0175 40.7498L37.6499 42.6472ZM34.9171 43.0155C35.9142 43.0155 36.8231 42.9019 37.6278 42.6543L37.0396 40.7427C36.471 40.9177 35.7688 41.0155 34.9171 41.0155V43.0155ZM30.7183 41.9222C31.9504 42.6614 33.3613 43.0155 34.9171 43.0155V41.0155C33.6733 41.0155 32.628 40.7356 31.7472 40.2072L30.7183 41.9222ZM27.8598 38.8907C28.5483 40.1478 29.4987 41.1602 30.7028 41.9127L31.7628 40.2167C30.8539 39.6486 30.1405 38.8914 29.614 37.93L27.8598 38.8907ZM26.8653 34.6072C26.8653 36.1723 27.1852 37.6031 27.8511 38.8744L29.6227 37.9464C29.1265 36.9991 28.8653 35.8944 28.8653 34.6072H26.8653ZM27.8511 30.2211C27.1813 31.4998 26.8653 32.9726 26.8653 34.6072H28.8653C28.8653 33.2309 29.1304 32.089 29.6227 31.1491L27.8511 30.2211ZM30.6455 27.2487C29.4472 27.9554 28.5143 28.9549 27.8511 30.2211L29.6227 31.1491C30.1216 30.1968 30.7997 29.4796 31.6615 28.9714L30.6455 27.2487ZM34.719 26.1593C33.2086 26.1593 31.8345 26.5168 30.6294 27.2584L31.6776 28.9617C32.5326 28.4356 33.5354 28.1593 34.719 28.1593V26.1593ZM40.28 28.5335C38.7923 26.9547 36.9158 26.1593 34.719 26.1593V28.1593C36.3783 28.1593 37.7238 28.7371 38.8244 29.9051L40.28 28.5335ZM41.0094 28.959C40.7647 28.9014 40.5156 28.7685 40.2593 28.5122L38.8451 29.9264C39.3284 30.4097 39.898 30.7521 40.5513 30.9058L41.0094 28.959ZM41.4272 28.8414C41.2768 28.9488 41.1397 28.9804 40.9541 28.9476L40.6066 30.9172C41.319 31.0429 42.0006 30.8896 42.5897 30.4688L41.4272 28.8414ZM41.9066 28.2376C41.8697 28.3943 41.7577 28.6026 41.423 28.8444L42.5939 30.4658C43.21 30.0209 43.679 29.4369 43.8534 28.6956L41.9066 28.2376ZM41.7313 27.8178C41.9407 28.057 41.9219 28.1726 41.9066 28.2376L43.8534 28.6956C44.0494 27.8626 43.7666 27.1066 43.2364 26.5007L41.7313 27.8178ZM38.588 25.4172C39.7356 25.9325 40.783 26.7236 41.7282 27.8142L43.2395 26.5043C42.1247 25.2179 40.8478 24.2395 39.4072 23.5927L38.588 25.4172ZM34.719 24.5938C36.1438 24.5938 37.4231 24.8706 38.5727 25.4102L39.4225 23.5997C37.9838 22.9244 36.4107 22.5938 34.719 22.5938V24.5938ZM29.6809 25.8812C31.1208 25.0314 32.7902 24.5938 34.719 24.5938V22.5938C32.4749 22.5938 30.4467 23.1069 28.6644 24.1588L29.6809 25.8812ZM26.2437 29.388C27.0819 27.8791 28.2212 26.7188 29.6704 25.8873L28.675 24.1526C26.902 25.1699 25.5058 26.5978 24.4953 28.4167L26.2437 29.388ZM24.9829 34.6072C24.9829 32.6164 25.4116 30.8857 26.2437 29.388L24.4953 28.4167C23.4786 30.2469 22.9829 32.3194 22.9829 34.6072H24.9829ZM26.2437 39.7471C25.4096 38.2457 24.9829 36.5404 24.9829 34.6072H22.9829C22.9829 36.8468 23.4807 38.8919 24.4953 40.7184L26.2437 39.7471ZM29.7644 43.296C28.2716 42.4052 27.0992 41.2201 26.2343 39.7306L24.5047 40.7349C25.5414 42.5203 26.9573 43.9499 28.7395 45.0135L29.7644 43.296Z" fill="#1E1A1C" mask="url(#path-1-outside-1_2_21)"/>
</svg>
